<svg width="152" height="42" viewBox="0 0 152 42" fill="none" xmlns="http://www.w3.org/2000/svg">
<path d="M45.2244 10.2581C41.6521 4.69678 34.4961 0.894199 27.1344 0.141235C19.9785 -0.589083 12.6866 1.56416 7.17619 5.4139C1.62992 9.28818 -2.51044 16.2724 1.77145 22.0206C3.07317 23.7586 4.91513 25.0151 7.00823 25.5929C8.63494 26.0402 10.3654 26.0666 12.0544 25.91C13.549 25.7722 15.1984 25.2986 16.6514 25.8364C18.7933 26.629 19.3123 29.5974 17.6422 31.1317C16.6269 32.0639 14.9153 32.1583 13.8679 31.2732C13.8566 33.2566 14.6058 35.2022 15.7815 36.7987C17.2563 38.811 19.3687 40.265 21.775 40.924C24.1885 41.5662 26.7529 41.3142 28.9952 40.2144C30.4652 39.4803 31.7655 38.3499 32.5524 36.9063C33.8394 34.5398 33.5941 31.4563 32.2599 29.1389C31.0918 27.1102 29.1593 25.7137 27.1401 24.6098C23.4451 22.6 18.4367 21.3167 16.6477 17.0612V17.048C14.6587 12.3189 18.6971 7.18967 23.0507 5.67242C26.6362 4.42125 31.0427 4.78735 34.2017 6.99341C36.4172 8.54085 37.8514 10.9281 37.7873 13.3587C37.7231 15.7893 36.0322 18.1898 33.4469 19.2333C31.2503 20.1165 28.6423 19.9976 26.3286 19.3654C28.9914 22.0074 33.0204 23.7587 37.1155 23.5718C40.3953 23.4246 43.5638 21.9206 45.3452 19.5711C47.6815 16.4895 47.1399 13.1889 45.2547 10.2581" fill="#334155"/>
<path fill-rule="evenodd" clip-rule="evenodd" d="M152 16.0537H147.143V40.7902H152V16.0537ZM114.639 36.6781C112.142 36.6781 110.328 34.6948 110.328 32.3C110.328 29.9052 112.142 27.92 114.639 27.92C115.213 27.9166 115.782 28.0279 116.313 28.2474C116.843 28.4668 117.325 28.79 117.729 29.1979C118.133 29.6058 118.452 30.0903 118.667 30.623C118.881 31.1556 118.988 31.7258 118.979 32.3C118.988 32.8741 118.881 33.4442 118.667 33.9767C118.452 34.5093 118.133 34.9937 117.729 35.4014C117.325 35.8092 116.843 36.1321 116.313 36.3514C115.782 36.5706 115.213 36.6817 114.639 36.6781ZM114.639 41.2299C119.84 41.2299 123.842 37.1914 123.842 32.2641C123.842 27.4067 119.879 23.3342 114.639 23.3342C109.472 23.3342 105.469 27.3727 105.469 32.2641C105.469 37.199 109.438 41.2374 114.639 41.2374V41.2299ZM81.5875 32.9228C81.5875 30.3223 80.3212 28.0993 77.5509 28.0993C74.8127 28.0993 73.5823 30.3223 73.5823 32.919V40.7883H68.7229V32.3378C68.7229 27.4105 71.6329 23.3739 77.5509 23.3739C83.469 23.3739 86.4469 27.3765 86.4469 32.3378V40.7921H81.5875V32.9228ZM103.656 35.6591C103.656 39.0804 100.338 41.2714 96.4713 41.2714C92.9499 41.2714 90.4834 39.9711 89.0813 37.4386L92.6668 35.4194C93.3858 36.7894 94.5143 37.3707 96.226 37.3707C97.7998 37.3707 98.7925 36.7536 98.7925 35.7628C98.7925 34.6868 97.3553 34.3982 95.6105 34.0477C92.915 33.5063 89.4852 32.8175 89.4852 28.8503C89.4852 25.8064 92.1536 23.4116 96.3279 23.4116C99.9625 23.4116 102.144 25.1213 103.171 27.0726L99.5851 29.09C99.0378 27.8596 97.8055 27.2764 96.4373 27.2764C95.239 27.2764 94.3502 27.8595 94.3502 28.7484C94.3502 29.8321 95.8097 30.1432 97.5728 30.5191C100.261 31.0923 103.656 31.8159 103.656 35.6591ZM130.992 31.7244C130.992 34.3248 132.225 36.5498 134.721 36.5498C137.22 36.5498 138.486 34.3248 138.486 31.6904V23.8551H143.344V32.2716C143.344 37.2329 140.402 41.2374 134.721 41.2374C129.077 41.2374 126.135 37.2329 126.135 32.2716V23.8551H130.992V31.7244ZM61.4406 30.2808C60.9122 28.3276 59.3232 27.0066 57.4021 27.0066C55.4187 27.0066 53.8977 28.2597 53.3693 30.2808H61.4406ZM48.5722 32.0679C48.5549 30.8883 48.7744 29.7172 49.2176 28.6239C49.6597 27.531 50.3161 26.5378 51.1482 25.7026C51.9798 24.867 52.9706 24.2066 54.0619 23.7608C55.1534 23.3144 56.323 23.0905 57.5021 23.1022C62.4974 23.1022 66.1357 27.0689 66.1357 32.4623V33.6512H53.4316C53.742 34.648 54.3687 35.5165 55.2168 36.1252C56.0649 36.7347 57.0884 37.0513 58.1324 37.0273C59.495 37.0687 60.821 36.5834 61.835 35.6723L64.9789 38.4822C63.0282 40.1941 60.5022 41.1049 57.9079 41.0318C52.639 41.0318 48.5722 37.0933 48.5722 32.0679Z" fill="#334155"/>
</svg>